<svg id="visual" viewBox="0 0 900 600" width="900" height="600" xmlns="http://www.w3.org/2000/svg" xmlns:xlink="http://www.w3.org/1999/xlink" version="1.1"><rect x="0" y="0" width="900" height="600" fill="#ffffff"></rect><path d="M326 0L376 0L376 86L478 86L478 171L377 171L377 257L506 257L506 343L478 343L478 429L405 429L405 514L513 514L513 600L0 600L0 514L0 514L0 429L0 429L0 343L0 343L0 257L0 257L0 171L0 171L0 86L0 86L0 0L0 0Z" fill="#1e88e5"></path><path d="M281 0L215 0L215 86L219 86L219 171L343 171L343 257L271 257L271 343L284 343L284 429L236 429L236 514L211 514L211 600L0 600L0 514L0 514L0 429L0 429L0 343L0 343L0 257L0 257L0 171L0 171L0 86L0 86L0 0L0 0Z" fill="#3097ed"></path><path d="M194 0L216 0L216 86L106 86L106 171L232 171L232 257L90 257L90 343L101 343L101 429L231 429L231 514L168 514L168 600L0 600L0 514L0 514L0 429L0 429L0 343L0 343L0 257L0 257L0 171L0 171L0 86L0 86L0 0L0 0Z" fill="#42a5f5"></path></svg>